<svg id="visual" viewBox="0 0 900 600" width="900" height="600" xmlns="http://www.w3.org/2000/svg" xmlns:xlink="http://www.w3.org/1999/xlink" version="1.1"><rect x="0" y="0" width="900" height="600" fill="#1e2329"></rect><path d="M0 351L21.5 354.2C43 357.3 86 363.7 128.8 374.2C171.7 384.7 214.3 399.3 257.2 412.5C300 425.7 343 437.3 385.8 443C428.7 448.7 471.3 448.3 514.2 445.7C557 443 600 438 642.8 430.8C685.7 423.7 728.3 414.3 771.2 404.2C814 394 857 383 878.5 377.5L900 372L900 601L878.5 601C857 601 814 601 771.2 601C728.3 601 685.7 601 642.8 601C600 601 557 601 514.2 601C471.3 601 428.7 601 385.8 601C343 601 300 601 257.2 601C214.3 601 171.7 601 128.8 601C86 601 43 601 21.5 601L0 601Z" fill="#fcd535"></path><path d="M0 462L21.5 451.8C43 441.7 86 421.3 128.8 423.2C171.7 425 214.3 449 257.2 457.7C300 466.3 343 459.7 385.8 447.7C428.7 435.7 471.3 418.3 514.2 410.7C557 403 600 405 642.8 415C685.7 425 728.3 443 771.2 452.2C814 461.3 857 461.7 878.5 461.8L900 462L900 601L878.5 601C857 601 814 601 771.2 601C728.3 601 685.7 601 642.8 601C600 601 557 601 514.2 601C471.3 601 428.7 601 385.8 601C343 601 300 601 257.2 601C214.3 601 171.7 601 128.8 601C86 601 43 601 21.5 601L0 601Z" fill="#f9ce2c"></path><path d="M0 452L21.5 457.5C43 463 86 474 128.8 479.7C171.7 485.3 214.3 485.7 257.2 478.2C300 470.7 343 455.3 385.8 456.5C428.7 457.7 471.3 475.3 514.2 483.8C557 492.3 600 491.7 642.8 482.5C685.7 473.3 728.3 455.7 771.2 456C814 456.3 857 474.7 878.5 483.8L900 493L900 601L878.5 601C857 601 814 601 771.2 601C728.3 601 685.7 601 642.8 601C600 601 557 601 514.2 601C471.3 601 428.7 601 385.8 601C343 601 300 601 257.2 601C214.3 601 171.7 601 128.8 601C86 601 43 601 21.5 601L0 601Z" fill="#f6c723"></path><path d="M0 519L21.5 522.3C43 525.7 86 532.3 128.8 527.5C171.7 522.7 214.3 506.3 257.2 502.3C300 498.3 343 506.7 385.8 514C428.7 521.3 471.3 527.7 514.2 530.8C557 534 600 534 642.8 526.2C685.7 518.3 728.3 502.7 771.2 497.3C814 492 857 497 878.5 499.5L900 502L900 601L878.5 601C857 601 814 601 771.2 601C728.3 601 685.7 601 642.8 601C600 601 557 601 514.2 601C471.3 601 428.7 601 385.8 601C343 601 300 601 257.2 601C214.3 601 171.7 601 128.8 601C86 601 43 601 21.5 601L0 601Z" fill="#f3c019"></path><path d="M0 546L21.5 543C43 540 86 534 128.8 531.3C171.7 528.7 214.3 529.3 257.2 531.5C300 533.7 343 537.3 385.8 539.3C428.7 541.3 471.3 541.7 514.2 540C557 538.3 600 534.7 642.8 532.2C685.7 529.7 728.3 528.3 771.2 533.5C814 538.7 857 550.3 878.5 556.2L900 562L900 601L878.5 601C857 601 814 601 771.2 601C728.3 601 685.7 601 642.8 601C600 601 557 601 514.2 601C471.3 601 428.7 601 385.8 601C343 601 300 601 257.2 601C214.3 601 171.7 601 128.8 601C86 601 43 601 21.5 601L0 601Z" fill="#f0b90b"></path></svg>